# xmcd
#
# Track frame offsets:
#	150
#	14820
#	33480
#	52112
#	70762
#	89492
#	105825
#	122165
#	138522
#	154867
#	167287
#	179827
#	194207
#	212885
#	231520
#	250195
#	268900
#	285250
#	301600
#	317962
#
# Disc length: 4456 seconds
#
# Revision: 1
# Processed by: cddbd v1.5.1PL0 Copyright (c) Steve Scherf et al.
# Submitted via: CDex 1.50Beta5
#
DISCID=2e116614
DTITLE=般若心経の会 - 般若心経ミュージック
DYEAR=2003
DGENRE=Holiday
TTITLE0=小野田浩二他、般若心経の会/般若心経（和楽器伴奏風）
TTITLE1=京極加津恵、般若心経の会/般若心経（童謡風）Bb
TTITLE2=市橋美和、般若心経の会/般若心経（童謡風）C
TTITLE3=佃光堂、般若心経の会/般若心経（童謡風）Eb
TTITLE4=小野田浩二、般若心経の会/般若心経（童謡風）G
TTITLE5=京極加津恵、般若心経の会/般若心経（ポップモード）Bb
TTITLE6=市橋美和、般若心経の会/般若心経（ポップモード）C
TTITLE7=佃光堂、般若心経の会/般若心経（ポップモード）Eb
TTITLE8=小野田浩二、般若心経の会/般若心経（ポップモード）G
TTITLE9=市橋美和、般若心経の会/般若心経（ロックモード）C
TTITLE10=小野田浩二、般若心経の会/般若心経（ロックモード）G
TTITLE11=まきのさぶろう、般若心経の会/般若心経（ラップモード）
TTITLE12=般若心経の会/般若心経（童謡風）カラオケBb
TTITLE13=般若心経の会/般若心経（童謡風）カラオケC
TTITLE14=般若心経の会/般若心経（童謡風）カラオケEb
TTITLE15=般若心経の会/般若心経（童謡風）カラオケG
TTITLE16=般若心経の会/般若心経（ポップモード）カラオケBb
TTITLE17=般若心経の会/般若心経（ポップモード）カラオケC
TTITLE18=般若心経の会/般若心経（ポップモード）カラオケEb
TTITLE19=般若心経の会/般若心経（ポップモード）カラオケG
EXTD=
EXTT0=
EXTT1=
EXTT2=
EXTT3=
EXTT4=
EXTT5=
EXTT6=
EXTT7=
EXTT8=
EXTT9=
EXTT10=
EXTT11=
EXTT12=
EXTT13=
EXTT14=
EXTT15=
EXTT16=
EXTT17=
EXTT18=
EXTT19=
PLAYORDER=
